<?xml version="1.0" standalone="no"?>
<!DOCTYPE svg PUBLIC "-//W3C//DTD SVG 20010904//EN"
 "http://www.w3.org/TR/2001/REC-SVG-20010904/DTD/svg10.dtd">
<svg version="1.0" xmlns="http://www.w3.org/2000/svg"
 width="1362.000000pt" height="1158.000000pt" viewBox="0 0 1362.000000 1158.000000"
 preserveAspectRatio="xMidYMid meet">

<g transform="translate(0.000000,1158.000000) scale(0.100000,-0.100000)"
fill="#000000" stroke="none">
<path d="M9460 10678 c0 -2 -19 -59 -43 -128 l-42 -125 -128 0 c-70 0 -127 -2
-127 -5 0 -3 45 -39 100 -80 54 -41 99 -81 99 -88 1 -8 -15 -65 -35 -128 -20
-64 -35 -117 -33 -119 2 -2 50 30 107 71 118 86 97 87 234 -13 48 -35 88 -61
88 -58 0 7 -58 218 -65 236 -4 12 21 37 97 95 l103 79 -131 3 -132 3 -10 27
c-6 15 -25 73 -42 130 -27 85 -39 116 -40 100z"/>
<path d="M7930 10360 c-557 -115 -1010 -258 -1540 -485 -163 -69 -626 -304
-780 -395 -620 -366 -1127 -754 -1618 -1235 -67 -66 -152 -154 -188 -195 -37
-41 -88 -97 -114 -125 -65 -69 -250 -293 -314 -379 -97 -131 -156 -216 -150
-216 7 0 411 147 455 166 22 10 61 45 100 92 35 43 70 84 79 92 8 8 37 42 65
75 177 213 618 651 854 850 14 11 43 36 65 56 65 56 282 229 386 306 538 398
1047 702 1590 948 52 23 127 57 165 75 243 112 753 293 1024 364 73 19 136 38
139 41 11 11 -38 3 -218 -35z"/>
<path d="M8825 10234 c-55 -7 -199 -34 -320 -59 -1030 -211 -2011 -646 -2976
-1320 -384 -269 -762 -588 -1085 -916 -228 -232 -247 -256 -182 -230 32 13
268 99 413 151 180 64 234 92 295 150 80 77 418 371 540 471 372 304 932 683
1327 899 367 201 529 280 893 437 395 171 738 289 1190 411 90 25 57 27 -95 6z"/>
<path d="M10474 9971 c-44 -20 -134 -80 -172 -115 -21 -18 -36 -21 -120 -21
-85 0 -104 -3 -152 -27 -51 -25 -218 -158 -491 -390 -63 -53 -202 -170 -309
-259 -107 -89 -216 -181 -241 -203 -25 -23 -83 -72 -129 -111 -46 -38 -123
-104 -170 -145 -48 -41 -135 -115 -194 -165 -59 -49 -117 -98 -128 -107 -19
-16 -19 -18 35 -48 67 -38 176 -136 227 -205 49 -67 78 -124 110 -218 l26 -78
70 58 c39 32 126 105 195 163 366 308 606 509 645 540 23 19 122 103 220 185
97 83 225 190 283 239 177 148 242 208 266 246 31 50 55 126 55 176 0 34 6 48
28 68 120 108 154 144 172 180 34 71 22 143 -34 204 -49 54 -119 66 -192 33z"/>
<path d="M8090 9646 c-292 -98 -435 -157 -705 -290 -319 -158 -565 -325 -577
-391 -12 -62 43 -42 267 95 87 54 307 180 400 230 44 24 144 78 221 122 78 43
144 78 146 78 3 0 74 33 159 74 85 40 188 88 229 105 182 76 126 67 -140 -23z"/>
<path d="M9005 9253 c-66 -25 -203 -76 -305 -113 -347 -127 -825 -302 -930
-342 -58 -22 -154 -57 -214 -79 -60 -22 -130 -48 -155 -58 -44 -18 -197 -75
-396 -146 -49 -18 -146 -54 -215 -80 -69 -26 -222 -83 -340 -127 -118 -44
-312 -116 -430 -160 -118 -44 -231 -86 -250 -93 -19 -7 -183 -68 -365 -135
-181 -66 -386 -143 -455 -170 -115 -45 -551 -206 -680 -250 -30 -11 -102 -38
-160 -60 -58 -23 -141 -54 -185 -69 -83 -30 -550 -202 -666 -246 -95 -37 -155
-78 -188 -130 -57 -90 -64 -190 -21 -279 41 -85 92 -124 316 -241 115 -59 259
-134 319 -165 61 -32 173 -90 250 -130 77 -40 163 -85 190 -100 28 -15 127
-67 220 -115 281 -146 301 -163 345 -310 56 -184 111 -358 186 -595 105 -328
111 -348 214 -685 50 -165 103 -332 117 -372 32 -92 85 -155 150 -177 57 -20
67 -20 129 -1 37 11 80 40 179 125 72 62 157 135 190 162 33 28 123 106 200
172 77 67 149 128 160 138 11 9 97 82 190 163 94 80 176 149 182 152 11 4 110
-54 323 -192 36 -24 193 -125 350 -225 157 -101 335 -216 397 -257 200 -133
278 -158 407 -134 80 15 141 46 200 101 75 70 78 74 200 385 30 77 75 194 100
260 61 165 178 476 209 555 74 190 101 260 117 305 23 67 125 338 149 395 19
46 69 173 115 292 14 36 26 71 26 77 0 6 4 19 10 29 10 19 26 59 130 337 39
105 93 246 120 315 27 69 85 220 129 335 126 333 340 892 376 985 91 233 121
314 156 410 21 57 37 105 36 107 -2 1 -28 -19 -59 -45 -324 -272 -337 -284
-352 -325 -21 -56 -149 -395 -242 -637 -41 -107 -104 -274 -140 -370 -36 -96
-92 -242 -124 -325 -129 -329 -382 -993 -565 -1480 -77 -205 -106 -281 -181
-470 -36 -93 -83 -215 -104 -270 -20 -55 -58 -154 -85 -220 -26 -66 -56 -142
-66 -170 -10 -27 -35 -93 -54 -145 -37 -97 -57 -125 -113 -154 -72 -37 -111
-22 -374 150 -93 60 -193 125 -223 144 -30 19 -103 66 -162 104 -235 151 -800
513 -830 532 -17 10 -107 67 -200 125 -314 199 -340 210 -480 210 -78 0 -100
-4 -140 -25 -108 -55 -167 -149 -208 -333 -37 -164 -105 -543 -105 -585 0 -21
-4 -38 -10 -38 -5 0 -10 8 -10 17 0 22 -54 201 -155 518 -46 143 -93 294 -105
335 -44 150 -140 447 -159 491 -25 55 -107 148 -177 200 -29 21 -55 39 -58 39
-2 0 -35 17 -73 39 -37 21 -153 82 -258 136 -246 126 -437 226 -450 235 -5 4
-122 65 -260 135 -298 152 -325 169 -325 195 0 28 25 39 335 154 83 30 200 74
260 96 61 23 161 59 224 81 62 22 164 60 225 84 61 24 199 76 306 116 107 39
283 105 390 145 246 91 721 268 820 304 41 15 172 63 290 108 272 102 405 152
453 169 73 26 634 234 752 279 175 67 210 80 315 118 149 53 632 233 660 245
14 5 79 29 145 52 117 40 123 44 240 142 66 56 161 135 210 176 169 141 236
201 223 200 -7 -1 -67 -21 -133 -46z m-3110 -4068 c40 -22 297 -178 413 -251
34 -21 62 -42 62 -46 0 -7 -81 -78 -225 -198 -97 -81 -187 -157 -391 -330 -87
-74 -169 -144 -182 -154 l-24 -19 6 39 c7 46 40 256 62 399 39 243 85 486 100
524 29 73 91 85 179 36z"/>
<path d="M8180 8273 c-27 -18 -80 -63 -434 -363 -126 -107 -257 -217 -290
-245 -77 -62 -364 -306 -645 -548 -69 -60 -164 -141 -211 -180 -188 -159 -282
-281 -528 -689 -55 -90 -142 -275 -142 -301 0 -18 46 -57 66 -57 38 0 475 186
716 305 135 66 157 82 381 270 26 22 63 51 81 65 27 20 319 267 446 376 268
232 361 311 435 374 49 41 153 129 230 195 78 66 163 138 190 160 119 97 128
108 127 157 -4 179 -135 378 -305 463 -80 40 -84 41 -117 18z m-1694 -1736
c47 -27 76 -58 114 -121 22 -36 40 -69 40 -73 0 -5 -21 -16 -48 -27 -26 -10
-111 -48 -190 -84 -202 -92 -204 -85 -45 161 34 54 70 111 78 127 17 33 21 35
51 17z"/>
<path d="M6154 7696 c-28 -24 -29 -24 -10 -45 11 -12 23 -21 28 -21 14 0 500
-245 554 -280 23 -14 58 -9 89 16 20 15 20 15 -3 33 -18 13 -587 305 -622 319
-4 2 -21 -8 -36 -22z"/>
<path d="M5650 7493 c-17 -22 -18 -29 -8 -39 7 -7 130 -72 273 -145 143 -72
302 -153 353 -181 l93 -49 35 22 c46 28 43 31 -116 114 -158 82 -599 305 -604
305 -3 0 -14 -12 -26 -27z"/>
<path d="M5116 7291 c-10 -11 -15 -25 -11 -30 3 -6 75 -45 158 -87 177 -89
449 -229 492 -254 17 -10 65 -36 107 -59 75 -41 78 -41 108 -26 38 20 38 28
-2 58 -65 48 -787 417 -816 417 -11 0 -27 -9 -36 -19z"/>
<path d="M4577 7086 c-13 -19 -14 -26 -4 -34 7 -6 112 -60 234 -120 238 -119
604 -311 665 -349 47 -29 69 -29 97 1 l22 24 -33 20 c-180 109 -909 482 -944
482 -12 0 -29 -11 -37 -24z"/>
<path d="M4035 6890 c-9 -10 -15 -26 -12 -34 3 -8 156 -89 339 -179 183 -91
377 -190 432 -221 54 -31 101 -56 104 -56 3 0 50 -25 104 -55 96 -54 99 -55
128 -40 16 8 31 19 35 24 5 9 -60 61 -76 61 -4 0 -51 25 -105 56 -227 129
-893 464 -922 464 -5 0 -17 -9 -27 -20z"/>
<path d="M7879 6889 c-21 -21 -21 -22 -3 -39 17 -17 381 -239 497 -303 26 -15
53 -32 60 -38 7 -5 56 -37 110 -71 95 -59 98 -60 117 -43 11 10 20 24 20 31 0
17 -54 60 -137 110 -37 23 -162 99 -278 169 -253 154 -341 205 -355 205 -5 0
-19 -9 -31 -21z"/>
<path d="M6169 6703 c-13 -16 -12 -17 4 -4 9 7 17 15 17 17 0 8 -8 3 -21 -13z"/>
<path d="M2798 6583 c-313 -547 -487 -1181 -448 -1629 46 -527 287 -879 711
-1038 316 -118 781 -84 1219 91 221 88 626 308 625 339 -1 5 -35 115 -77 244
-42 129 -84 264 -94 300 -9 36 -19 67 -21 69 -1 2 -11 -3 -20 -11 -41 -37
-216 -149 -323 -208 -420 -232 -675 -315 -960 -314 -208 1 -373 62 -498 183
-81 79 -130 171 -169 317 -24 91 -27 115 -27 294 0 160 4 218 23 320 48 269
130 519 260 803 l40 87 -47 44 c-50 47 -122 158 -122 188 0 35 -17 16 -72 -79z"/>
<path d="M7510 6591 c-5 -11 -10 -24 -10 -28 0 -5 71 -51 158 -103 86 -51 202
-121 257 -155 55 -35 118 -73 141 -86 48 -28 356 -223 396 -250 27 -19 27 -19
47 7 11 14 18 31 15 37 -4 11 -81 65 -274 189 -47 31 -197 123 -335 205 -363
218 -374 223 -395 184z"/>
<path d="M3222 6242 c-130 -284 -225 -667 -225 -912 -1 -224 59 -394 174 -494
60 -52 134 -85 232 -103 277 -50 666 106 1108 444 67 51 99 82 96 92 -25 95
-103 341 -108 341 -4 0 -42 -28 -86 -63 -131 -107 -362 -266 -499 -345 -192
-111 -408 -157 -504 -107 -38 20 -86 76 -99 114 -19 59 -24 165 -11 253 24
163 110 462 188 655 l22 53 -23 13 c-12 8 -70 39 -128 70 l-106 56 -31 -67z"/>
<path d="M7150 6285 c-29 -31 -59 -9 295 -222 154 -92 318 -193 365 -224 189
-126 483 -309 497 -309 7 0 19 11 25 25 9 21 9 29 -3 40 -14 13 -309 208 -499
328 -200 126 -606 368 -641 382 -9 3 -25 -5 -39 -20z"/>
<path d="M5480 6279 c-22 -18 -22 -19 -3 -10 12 6 25 16 28 21 9 15 3 12 -25
-11z"/>
<path d="M6762 5978 c-7 -7 -12 -17 -12 -23 0 -7 82 -60 183 -120 238 -141
458 -276 599 -368 62 -40 145 -93 183 -117 39 -25 151 -99 249 -164 168 -112
180 -118 192 -101 33 45 23 57 -173 187 -369 246 -761 492 -988 620 -77 44
-144 84 -149 89 -14 13 -70 11 -84 -3z"/>
<path d="M6400 5677 c-13 -7 -25 -17 -27 -24 -5 -13 9 -22 192 -133 377 -229
690 -427 1189 -753 209 -137 227 -143 234 -85 3 22 -26 44 -285 215 -374 246
-742 482 -896 574 -32 18 -82 48 -110 66 -29 18 -59 36 -67 40 -8 4 -49 27
-89 51 -98 58 -113 63 -141 49z"/>
<path d="M5507 5528 c-28 -38 -40 -58 -34 -58 2 0 18 20 36 45 18 25 30 45 27
45 -3 0 -16 -15 -29 -32z"/>
<path d="M5392 5120 c0 -14 2 -19 5 -12 2 6 2 18 0 25 -3 6 -5 1 -5 -13z"/>
<path d="M4930 4009 c-248 -166 -702 -350 -1033 -419 -114 -24 -272 -40 -386
-40 -308 0 -634 108 -812 268 -95 85 -60 34 58 -85 127 -128 172 -161 334
-247 211 -111 417 -157 699 -157 261 -1 440 31 735 127 148 49 208 72 333 131
60 28 243 126 260 139 2 1 -6 20 -17 43 -12 22 -42 93 -67 158 -24 64 -46 118
-47 118 -1 1 -27 -15 -57 -36z"/>
<path d="M8585 2623 c-74 -16 -127 -63 -154 -136 -27 -70 -1 -159 62 -214 132
-116 353 -19 351 153 -2 133 -125 226 -259 197z"/>
<path d="M977 2513 c-4 -3 -7 -422 -7 -930 l0 -923 200 0 200 0 0 577 c0 570
0 577 19 558 20 -21 67 -88 345 -495 89 -129 188 -274 221 -322 33 -47 93
-135 134 -195 41 -59 79 -111 85 -115 6 -4 86 -8 179 -8 l167 0 0 930 0 930
-194 -2 -195 -3 -2 -570 c-2 -314 -5 -573 -7 -578 -2 -4 -40 47 -85 113 -45
66 -133 195 -196 287 -63 93 -165 240 -226 328 -61 88 -151 220 -200 293 l-88
132 -172 0 c-94 0 -175 -3 -178 -7z"/>
<path d="M6830 1590 l0 -930 195 0 195 0 0 300 0 300 118 0 c381 1 520 31 665
145 81 64 150 162 183 260 35 104 44 272 20 385 -48 226 -212 388 -460 450
-73 18 -113 20 -498 20 l-418 0 0 -930z m802 585 c26 -9 67 -34 91 -55 117
-103 125 -320 17 -442 -64 -74 -94 -81 -322 -86 l-198 -4 0 299 c0 165 3 303
8 307 4 5 86 6 182 3 128 -4 188 -10 222 -22z"/>
<path d="M9117 2513 c-4 -3 -7 -422 -7 -930 l0 -923 195 0 195 0 0 930 0 930
-188 0 c-104 0 -192 -3 -195 -7z"/>
<path d="M4446 2292 c-3 -59 -3 -136 0 -170 6 -49 4 -62 -7 -63 -8 0 -52 -1
-99 -2 l-85 -2 -3 -147 -3 -147 97 -3 97 -3 1 -390 c2 -403 5 -430 46 -519 44
-93 155 -171 279 -197 98 -20 318 -1 354 31 4 4 -1 56 -12 116 -34 186 -31
176 -57 170 -110 -28 -159 -16 -195 47 l-24 42 1 350 1 350 132 3 132 3 -3
147 -3 147 -129 0 -129 0 2 173 3 172 -195 0 -194 0 -7 -108z"/>
<path d="M11408 2228 l-3 -173 -65 -1 c-36 -1 -80 -2 -97 -3 l-33 -1 0 -145 0
-145 100 0 100 0 0 -391 c0 -323 3 -402 16 -452 30 -115 115 -208 229 -248 85
-30 257 -37 359 -15 42 10 77 20 80 24 4 7 -43 284 -49 290 -2 2 -27 -1 -57
-7 -56 -11 -116 -3 -144 20 -44 36 -48 61 -52 361 -2 158 -1 317 3 353 l7 65
134 0 135 0 -3 148 -3 147 -132 3 -133 3 -2 167 -3 167 -192 3 -193 2 -2 -172z"/>
<path d="M3271 2054 c-171 -37 -340 -163 -420 -314 -16 -30 -42 -96 -57 -145
-23 -80 -27 -107 -27 -240 0 -125 3 -163 22 -230 68 -245 251 -420 493 -470
138 -29 350 -14 461 34 107 46 224 147 286 246 17 27 46 95 64 150 31 97 32
106 32 270 0 150 -3 179 -23 245 -66 211 -217 375 -398 433 -125 40 -307 49
-433 21z m306 -312 c48 -25 115 -119 139 -197 24 -79 29 -247 10 -328 -29
-123 -90 -213 -172 -252 -55 -27 -165 -25 -219 3 -113 58 -175 195 -175 384 0
115 13 183 49 258 35 73 89 126 148 144 65 21 166 15 220 -12z"/>
<path d="M5750 2054 c-209 -47 -385 -207 -455 -415 -49 -143 -57 -355 -20
-509 57 -237 249 -426 483 -475 95 -20 287 -19 372 0 122 29 190 61 277 132
62 50 139 170 163 253 8 28 6 30 -23 34 -18 3 -72 8 -122 11 -49 3 -115 8
-146 11 l-56 6 -27 -46 c-57 -97 -168 -140 -302 -117 -103 18 -166 60 -216
141 -23 39 -50 127 -46 155 l3 27 471 -2 472 -1 6 44 c9 59 -9 237 -32 317
-60 204 -193 347 -388 415 -68 23 -98 28 -214 31 -95 2 -154 -1 -200 -12z
m306 -299 c21 -9 53 -30 71 -47 32 -31 76 -118 87 -173 l7 -30 -296 0 -295 0
6 30 c25 115 110 210 209 236 45 12 166 3 211 -16z"/>
<path d="M10216 2050 c-135 -37 -251 -111 -338 -216 -142 -172 -190 -469 -118
-732 28 -100 59 -159 130 -241 121 -141 270 -210 472 -219 194 -8 323 23 444
106 199 136 309 391 289 669 -21 300 -183 527 -441 618 -70 24 -96 28 -224 31
-118 3 -158 0 -214 -16z m278 -294 c69 -21 108 -56 148 -133 80 -153 85 -360
13 -509 -59 -122 -123 -167 -240 -168 -98 0 -163 35 -221 121 -48 70 -64 129
-71 255 -18 309 146 501 371 434z"/>
<path d="M8439 1542 c0 -284 -1 -555 -2 -602 -1 -47 -1 -129 1 -183 l2 -97
193 2 192 3 0 695 0 695 -192 2 -193 2 -1 -517z"/>
</g>
</svg>
